<svg width="13" height="14" viewBox="0 0 13 14" opacity="0.7" fill="none" xmlns="http://www.w3.org/2000/svg">
<path d="M4.91666 11.0833C1.99999 11.9583 1.99999 9.62498 0.833328 9.33332M8.99999 12.8333V10.5758C9.02188 10.2977 8.9843 10.018 8.88975 9.75553C8.79521 9.49302 8.64587 9.25365 8.45166 9.05332C10.2833 8.84915 12.2083 8.15498 12.2083 4.96998C12.2082 4.15555 11.8949 3.37235 11.3333 2.78248C11.5992 2.06995 11.5804 1.28235 11.2808 0.583317C11.2808 0.583317 10.5925 0.379151 8.99999 1.44665C7.663 1.0843 6.25366 1.0843 4.91666 1.44665C3.32416 0.379151 2.63583 0.583317 2.63583 0.583317C2.33621 1.28235 2.31741 2.06995 2.58333 2.78248C2.01757 3.37673 1.70397 4.167 1.70833 4.98748C1.70833 8.14915 3.63333 8.84332 5.46499 9.07082C5.27308 9.26913 5.12507 9.50564 5.03059 9.76494C4.93612 10.0242 4.8973 10.3005 4.91666 10.5758V12.8333" stroke="white" stroke-width="1.2" stroke-linecap="round" stroke-linejoin="round"/>
</svg>
