<svg width="14" height="14" viewBox="0 0 14 14" opacity="0.7" fill="none" xmlns="http://www.w3.org/2000/svg">
<path d="M12.6667 7.00002C12.6667 10.2217 10.055 12.8334 6.83333 12.8334M12.6667 7.00002C12.6667 3.77836 10.055 1.16669 6.83333 1.16669M12.6667 7.00002H1M6.83333 12.8334C3.61167 12.8334 1 10.2217 1 7.00002M6.83333 12.8334C8.29241 11.236 9.12161 9.163 9.16667 7.00002C9.12161 4.83704 8.29241 2.76406 6.83333 1.16669M6.83333 12.8334C5.37425 11.236 4.54506 9.163 4.5 7.00002C4.54506 4.83704 5.37425 2.76406 6.83333 1.16669M1 7.00002C1 3.77836 3.61167 1.16669 6.83333 1.16669" stroke="white" stroke-width="1.2" stroke-linecap="round" stroke-linejoin="round"/>
</svg>
